<?xml version="1.0" encoding="UTF-8"?>
<svg id="b" data-name="Layer 2" xmlns="http://www.w3.org/2000/svg" width="1066.904" height="472.96" viewBox="0 0 1066.904 472.96">
  <g id="c" data-name="Layer 1">
    <g>
      <path d="M549.082,358.41c-41.38,68.64-116.65,114.55-202.65,114.55s-161.3-45.91-202.67-114.57c25.43-7.05,48.4-22.21,65.02-42.99,4.15-5.19,7.87-10.69,11.13-16.44v64.04h73.14v-126.52c0-29.43,23.94-53.38,53.38-53.38s53.38,23.95,53.38,53.38v36.57h61.96c12.49,41.32,45.6,73.78,87.31,85.36Z" fill="#f80530"/>
      <path d="M546.242,109.96h-16.71v-23.13c6.02,7.35,11.6,15.08,16.71,23.13Z" fill="#f80530"/>
      <path d="M456.382,27.06V173.94c-21.8-38.18-62.92-63.98-109.95-63.98-53.94,0-100.1,33.93-118.27,81.57-4.63-12.2-11.15-23.68-19.38-33.96-16.62-20.78-39.57-35.93-65.02-42.99C185.132,45.92,260.422,0,346.432,0c39.69,0,77.1,9.78,109.95,27.06Z" fill="#f80530"/>
      <path d="M135.55,129.553c-8.21-1.98-16.79-3.02-25.6-3.02C49.32,126.533,0,175.853,0,236.483s49.32,109.95,109.95,109.95c8.81,0,17.39-1.04,25.6-3.02,48.32-11.56,84.35-55.11,84.35-106.93s-36.03-95.37-84.35-106.93Zm-15.28,176.12c-3.37,.5-6.82,.76-10.32,.76-38.57,0-69.95-31.38-69.95-69.95s31.38-69.95,69.95-69.95c3.5,0,6.95,.26,10.32,.76,33.7,5,59.63,34.13,59.63,69.19s-25.93,64.19-59.63,69.19Z" fill="#f80530"/>
      <path d="M276.479,346.432h-40v-109.95c0-60.627,49.323-109.95,109.95-109.95s109.95,49.323,109.95,109.95v20h-40v-20c0-38.571-31.38-69.95-69.95-69.95s-69.95,31.379-69.95,69.95v109.95Z" fill="#f80530"/>
      <path d="M582.907,346.432c-60.626,0-109.949-49.323-109.949-109.95V36.582h40V236.482c0,38.571,31.379,69.95,69.949,69.95s69.95-31.379,69.95-69.95-31.379-69.95-69.949-69.95h-53.387v-40h53.387c60.626,0,109.949,49.323,109.949,109.95s-49.323,109.95-109.95,109.95Z" fill="#f80530"/>
      <g>
        <polygon points="911.868 306.433 911.868 346.433 691.967 346.433 691.967 306.433 781.917 306.433 781.917 166.533 691.967 166.533 691.967 126.533 821.917 126.533 821.917 306.433 911.868 306.433" fill="#f80530"/>
        <rect x="781.93" y="36.593" width="39.979" height="39.979" fill="#f80530"/>
      </g>
      <path d="M967.937,166.533v69.95c0,38.85,31.6,70.45,70.45,70.45h19.5v39h-19.5c-60.35,0-109.45-49.1-109.45-109.45v-69.95h-90.45v-40h90.45V37.083h39V126.533h90.45v40h-90.45Z" fill="#f80530"/>
      <g>
        <path d="M709.183,415.947c-4.699,0-8.741-.755-12.125-2.266-3.386-1.511-6.113-3.524-8.182-6.042l5.622-5.034c1.901,2.07,4.041,3.649,6.419,4.741,2.378,1.091,5.188,1.636,8.434,1.636,2.965,0,5.356-.503,7.175-1.511,1.817-1.007,2.728-2.572,2.728-4.699,0-.894-.168-1.649-.504-2.266-.336-.614-.812-1.118-1.427-1.51-.616-.391-1.329-.699-2.14-.924-.812-.223-1.665-.391-2.56-.503l-6.881-1.091c-1.678-.223-3.385-.588-5.118-1.091-1.735-.504-3.287-1.217-4.657-2.14-1.372-.924-2.49-2.111-3.356-3.566-.868-1.454-1.301-3.301-1.301-5.539,0-4.418,1.691-7.774,5.076-10.069,3.385-2.293,7.847-3.44,13.385-3.44,4.027,0,7.51,.602,10.447,1.804,2.937,1.204,5.384,2.868,7.343,4.993l-5.119,5.371c-1.12-1.287-2.714-2.476-4.783-3.566-2.07-1.091-4.812-1.637-8.224-1.637-6.098,0-9.146,1.93-9.146,5.79,0,1.846,.657,3.119,1.972,3.818,1.314,.7,2.866,1.161,4.657,1.385l6.881,1.091c1.733,.28,3.454,.644,5.161,1.091,1.706,.448,3.244,1.133,4.615,2.056,1.37,.923,2.488,2.112,3.356,3.566,.867,1.455,1.301,3.302,1.301,5.538,0,4.363-1.692,7.791-5.077,10.279-3.385,2.49-8.042,3.734-13.972,3.734Z" fill="#f80530"/>
        <path d="M776.482,371.641h9.23l-20.979,51.691c-1.12,2.797-2.589,4.895-4.406,6.293-1.818,1.398-4.434,2.099-7.846,2.099h-7.301v-7.469h10.238l3.943-9.901-17.454-42.713h9.566l6.881,18.126,5.37,14.853h.504l5.37-14.853,6.882-18.126Z" fill="#f80530"/>
        <path d="M818.606,415.947c-4.699,0-8.741-.755-12.125-2.266-3.386-1.511-6.113-3.524-8.182-6.042l5.622-5.034c1.901,2.07,4.041,3.649,6.419,4.741,2.378,1.091,5.188,1.636,8.434,1.636,2.965,0,5.356-.503,7.175-1.511,1.817-1.007,2.728-2.572,2.728-4.699,0-.894-.168-1.649-.504-2.266-.336-.614-.812-1.118-1.427-1.51-.616-.391-1.329-.699-2.14-.924-.812-.223-1.665-.391-2.56-.503l-6.881-1.091c-1.678-.223-3.385-.588-5.118-1.091-1.735-.504-3.287-1.217-4.657-2.14-1.372-.924-2.49-2.111-3.356-3.566-.868-1.454-1.301-3.301-1.301-5.539,0-4.418,1.691-7.774,5.076-10.069,3.385-2.293,7.847-3.44,13.385-3.44,4.027,0,7.51,.602,10.447,1.804,2.937,1.204,5.384,2.868,7.343,4.993l-5.119,5.371c-1.12-1.287-2.714-2.476-4.783-3.566-2.07-1.091-4.812-1.637-8.224-1.637-6.098,0-9.146,1.93-9.146,5.79,0,1.846,.657,3.119,1.972,3.818,1.314,.7,2.866,1.161,4.657,1.385l6.881,1.091c1.733,.28,3.454,.644,5.161,1.091,1.706,.448,3.244,1.133,4.615,2.056,1.37,.923,2.488,2.112,3.356,3.566,.867,1.455,1.301,3.302,1.301,5.538,0,4.363-1.692,7.791-5.077,10.279-3.385,2.49-8.042,3.734-13.972,3.734Z" fill="#f80530"/>
        <path d="M875.835,414.94c-3.805,0-6.602-1.018-8.392-3.055-1.791-2.038-2.685-4.675-2.685-7.912v-24.864h-13.343v-7.469h9.482c1.622,0,2.77-.321,3.44-.965,.671-.643,1.007-1.804,1.007-3.482v-10.825h8.56v15.272h18.461v7.469h-18.461v28.362h18.461v7.469h-16.531Z" fill="#f80530"/>
        <path d="M928.868,415.947c-3.302,0-6.267-.532-8.896-1.594-2.63-1.062-4.839-2.573-6.629-4.532-1.791-1.957-3.161-4.321-4.112-7.091-.951-2.769-1.426-5.887-1.426-9.355s.488-6.601,1.468-9.398c.979-2.797,2.35-5.188,4.112-7.175,1.762-1.985,3.902-3.51,6.419-4.573,2.518-1.062,5.314-1.595,8.392-1.595,3.021,0,5.762,.518,8.224,1.553,2.461,1.035,4.559,2.504,6.294,4.405,1.733,1.902,3.062,4.168,3.985,6.797,.924,2.63,1.385,5.538,1.385,8.728v3.44h-31.048v1.417c0,3.391,1.062,6.156,3.188,8.296,2.125,2.14,5.062,3.21,8.811,3.21,2.797,0,5.188-.597,7.175-1.793,1.985-1.194,3.594-2.793,4.825-4.793l5.706,5.049c-1.455,2.525-3.679,4.657-6.671,6.396-2.993,1.739-6.728,2.609-11.202,2.609Zm-.672-38.349c-1.623,0-3.119,.28-4.489,.839-1.371,.561-2.546,1.357-3.524,2.392-.979,1.036-1.749,2.253-2.308,3.65-.56,1.399-.839,2.938-.839,4.615v.588h21.733v-.84c0-3.411-.965-6.139-2.895-8.182-1.931-2.041-4.49-3.062-7.679-3.062Z" fill="#f80530"/>
        <path d="M961.174,414.94v-43.3h7.804v5.622h.42c.671-1.846,1.636-3.411,2.895-4.699,1.259-1.286,3.063-1.93,5.413-1.93,2.293,0,4.069,.629,5.328,1.888s2.056,2.979,2.392,5.161h.336c.782-1.958,1.873-3.621,3.272-4.993,1.397-1.37,3.411-2.056,6.042-2.056,3.356,0,5.691,1.175,7.007,3.524,1.313,2.35,1.972,5.79,1.972,10.321v30.461h-7.804v-29.286c0-3.021-.365-5.104-1.091-6.252-.728-1.146-1.902-1.72-3.524-1.72-1.456,0-2.673,.49-3.65,1.469-.979,.979-1.469,2.447-1.469,4.405v31.384h-7.804v-29.286c0-3.021-.351-5.104-1.049-6.252-.7-1.146-1.86-1.72-3.482-1.72-1.511,0-2.757,.49-3.734,1.469-.979,.979-1.469,2.447-1.469,4.405v31.384h-7.804Z" fill="#f80530"/>
        <path d="M1037.451,415.947c-4.699,0-8.741-.755-12.125-2.266-3.386-1.511-6.113-3.524-8.182-6.042l5.622-5.034c1.901,2.07,4.041,3.649,6.419,4.741,2.378,1.091,5.188,1.636,8.434,1.636,2.965,0,5.356-.503,7.175-1.511,1.817-1.007,2.728-2.572,2.728-4.699,0-.894-.168-1.649-.504-2.266-.336-.614-.812-1.118-1.427-1.51-.616-.391-1.329-.699-2.14-.924-.812-.223-1.665-.391-2.56-.503l-6.881-1.091c-1.678-.223-3.385-.588-5.118-1.091-1.735-.504-3.287-1.217-4.657-2.14-1.372-.924-2.49-2.111-3.356-3.566-.868-1.454-1.301-3.301-1.301-5.539,0-4.418,1.691-7.774,5.076-10.069,3.385-2.293,7.847-3.44,13.385-3.44,4.027,0,7.51,.602,10.447,1.804,2.937,1.204,5.384,2.868,7.343,4.993l-5.119,5.371c-1.12-1.287-2.714-2.476-4.783-3.566-2.07-1.091-4.812-1.637-8.224-1.637-6.098,0-9.146,1.93-9.146,5.79,0,1.846,.657,3.119,1.972,3.818,1.314,.7,2.866,1.161,4.657,1.385l6.881,1.091c1.733,.28,3.454,.644,5.161,1.091,1.706,.448,3.244,1.133,4.615,2.056,1.37,.923,2.488,2.112,3.356,3.566,.867,1.455,1.301,3.302,1.301,5.538,0,4.363-1.692,7.791-5.077,10.279-3.385,2.49-8.042,3.734-13.972,3.734Z" fill="#f80530"/>
      </g>
      <path d="M582.902,236.48c0,18.24-2.06,35.99-5.98,53.04-26.63-2.97-47.39-25.62-47.39-53.04v-53.38h47.31c3.97,17.15,6.06,35.02,6.06,53.38Z" fill="#f80530"/>
      <path d="M163.332,236.48c0,26.26-19.56,48.95-45.49,52.8-.63,.1-1.27,.18-1.91,.25-3.92-17.05-5.98-34.81-5.98-53.05s2.06-35.99,5.98-53.04c.64,.07,1.28,.15,1.91,.24,25.93,3.85,45.49,26.55,45.49,52.8Z" fill="#f80530"/>
    </g>
  </g>
</svg>
